<svg version="1.1" xmlns="http://www.w3.org/2000/svg" width="1417" height="582"><defs><clipPath id="qRfliqBGUeCx"><path fill="none" stroke="none" d="M 33.5 10.5 L 1133.5 10.5 L 1133.5 560.5 L 33.5 560.5 L 33.5 10.5 Z"/></clipPath><clipPath id="HNsGhPUmlVRA"><path fill="none" stroke="none" d="M 33.5 10.5 L 1133.5 10.5 L 1133.5 560.5 L 33.5 560.5 L 33.5 10.5 Z"/></clipPath><clipPath id="sRdIDVIKeJQF"/><clipPath id="TMfAfaETNssn"/><clipPath id="SCSRgqSpUdHw"/><clipPath id="FIxeClOxPQqT"><path fill="none" stroke="none" d="M 33.5 10.5 L 1133.5 10.5 L 1133.5 560.5 L 33.5 560.5 L 33.5 10.5 Z M 34 11 L 1133 11 L 1133 560 L 34 560 L 34 11 Z M 34 11 L 1133 11 L 1133 560 L 34 560 L 34 11 Z M 34 11 L 1133 11 L 1133 560 L 34 560 L 34 11 Z"/></clipPath><clipPath id="CcEGToeebhUJ"><path fill="none" stroke="none" d="M 33.5 10.5 L 1133.5 10.5 L 1133.5 560.5 L 33.5 560.5 L 33.5 10.5 Z"/></clipPath><clipPath id="hapaWEeFNAut"><path fill="none" stroke="none" d="M 33.5 10.5 L 1133.5 10.5 L 1133.5 560.5 L 33.5 560.5 L 33.5 10.5 Z"/></clipPath></defs><path fill="rgb(255,255,255)" stroke="none" paint-order="stroke" d="M 0.5 0.5 L 1100.5 0.5 L 1100.5 550.5 L 0.5 550.5 L 0.5 0.5 Z" fill-opacity="1"/><rect fill="#FFFFFF" stroke="none" x="33" y="10" width="1100" height="550" transform="matrix(1, 0, 0, 1, 0.5, 0.5)"/><path fill="rgb(255,255,255)" stroke="none" paint-order="stroke" d="M 33.5 10.5 L 1133.5 10.5 L 1133.5 560.5 L 33.5 560.5 L 33.5 10.5 Z" fill-opacity="1"/><path fill="none" stroke="rgb(229,229,229)" paint-order="fill" d="M 33.5 10.5 L 1133.5 10.5 L 1133.5 560.5 L 33.5 560.5 L 33.5 10.5 Z" stroke-opacity="1" stroke-linejoin="bevel" stroke-miterlimit="10"/><g clip-path="url(#FIxeClOxPQqT)"><image width="361.7449645996094" height="361.7449531555176" preserveAspectRatio="none" transform="matrix(1, 0, 0, 1, 402.6275329589844, 48.41071701049805)" href="https://c.tile.openstreetmap.org/2/1/1.png"/></g><g clip-path="url(#FIxeClOxPQqT)"><image width="361.74493408203125" height="361.7449531555176" preserveAspectRatio="none" transform="matrix(1, 0, 0, 1, 764.3724975585938, 48.41071701049805)" href="https://c.tile.openstreetmap.org/2/2/1.png"/></g><g clip-path="url(#FIxeClOxPQqT)"><image width="361.7449645996094" height="361.74494552612305" preserveAspectRatio="none" transform="matrix(1, 0, 0, 1, 402.6275329589844, -313.334228515625)" href="https://c.tile.openstreetmap.org/2/1/0.png"/></g><g clip-path="url(#FIxeClOxPQqT)"><image width="361.74493408203125" height="361.74494552612305" preserveAspectRatio="none" transform="matrix(1, 0, 0, 1, 764.3724975585938, -313.334228515625)" href="https://c.tile.openstreetmap.org/2/2/0.png"/></g><g clip-path="url(#FIxeClOxPQqT)"><image width="361.7449645996094" height="361.7449645996094" preserveAspectRatio="none" transform="matrix(1, 0, 0, 1, 402.6275329589844, 410.1556701660156)" href="https://c.tile.openstreetmap.org/2/1/2.png"/></g><g clip-path="url(#FIxeClOxPQqT)"><image width="361.74493408203125" height="361.7449645996094" preserveAspectRatio="none" transform="matrix(1, 0, 0, 1, 764.3724975585938, 410.1556701660156)" href="https://c.tile.openstreetmap.org/2/2/2.png"/></g><g clip-path="url(#FIxeClOxPQqT)"><image width="361.74495697021484" height="361.7449531555176" preserveAspectRatio="none" transform="matrix(1, 0, 0, 1, 40.88257598876953, 48.41071701049805)" href="https://c.tile.openstreetmap.org/2/0/1.png"/></g><g clip-path="url(#FIxeClOxPQqT)"><image width="361.7449951171875" height="361.7449531555176" preserveAspectRatio="none" transform="matrix(1, 0, 0, 1, 1126.117431640625, 48.41071701049805)" href="https://c.tile.openstreetmap.org/2/3/1.png"/></g><g clip-path="url(#FIxeClOxPQqT)"><image width="361.74495697021484" height="361.74494552612305" preserveAspectRatio="none" transform="matrix(1, 0, 0, 1, 40.88257598876953, -313.334228515625)" href="https://c.tile.openstreetmap.org/2/0/0.png"/></g><g clip-path="url(#FIxeClOxPQqT)"><image width="361.7449951171875" height="361.74494552612305" preserveAspectRatio="none" transform="matrix(1, 0, 0, 1, 1126.117431640625, -313.334228515625)" href="https://c.tile.openstreetmap.org/2/3/0.png"/></g><g clip-path="url(#FIxeClOxPQqT)"><image width="361.74495697021484" height="361.7449645996094" preserveAspectRatio="none" transform="matrix(1, 0, 0, 1, 40.88257598876953, 410.1556701660156)" href="https://c.tile.openstreetmap.org/2/0/2.png"/></g><g clip-path="url(#FIxeClOxPQqT)"><image width="361.7449951171875" height="361.7449645996094" preserveAspectRatio="none" transform="matrix(1, 0, 0, 1, 1126.117431640625, 410.1556701660156)" href="https://c.tile.openstreetmap.org/2/3/2.png"/></g><g clip-path="url(#FIxeClOxPQqT)"><image width="361.7449645996094" height="361.744873046875" preserveAspectRatio="none" transform="matrix(1, 0, 0, 1, 402.6275329589844, 771.900634765625)" href="https://c.tile.openstreetmap.org/2/1/3.png"/></g><g clip-path="url(#FIxeClOxPQqT)"><image width="361.74493408203125" height="361.744873046875" preserveAspectRatio="none" transform="matrix(1, 0, 0, 1, 764.3724975585938, 771.900634765625)" href="https://c.tile.openstreetmap.org/2/2/3.png"/></g><g clip-path="url(#FIxeClOxPQqT)"><image width="361.7449417114258" height="361.7449531555176" preserveAspectRatio="none" transform="matrix(1, 0, 0, 1, -320.86236572265625, 48.41071701049805)" href="https://c.tile.openstreetmap.org/2/3/1.png"/></g><g clip-path="url(#FIxeClOxPQqT)"><image width="361.744873046875" height="361.7449531555176" preserveAspectRatio="none" transform="matrix(1, 0, 0, 1, 1487.8624267578125, 48.41071701049805)" href="https://c.tile.openstreetmap.org/2/0/1.png"/></g><g clip-path="url(#FIxeClOxPQqT)"><image width="361.74495697021484" height="361.744873046875" preserveAspectRatio="none" transform="matrix(1, 0, 0, 1, 40.88257598876953, 771.900634765625)" href="https://c.tile.openstreetmap.org/2/0/3.png"/></g><g clip-path="url(#FIxeClOxPQqT)"><image width="361.7449951171875" height="361.744873046875" preserveAspectRatio="none" transform="matrix(1, 0, 0, 1, 1126.117431640625, 771.900634765625)" href="https://c.tile.openstreetmap.org/2/3/3.png"/></g><g clip-path="url(#FIxeClOxPQqT)"><image width="361.7449417114258" height="361.74494552612305" preserveAspectRatio="none" transform="matrix(1, 0, 0, 1, -320.86236572265625, -313.334228515625)" href="https://c.tile.openstreetmap.org/2/3/0.png"/></g><g clip-path="url(#FIxeClOxPQqT)"><image width="361.744873046875" height="361.74494552612305" preserveAspectRatio="none" transform="matrix(1, 0, 0, 1, 1487.8624267578125, -313.334228515625)" href="https://c.tile.openstreetmap.org/2/0/0.png"/></g><g clip-path="url(#FIxeClOxPQqT)"><image width="361.7449417114258" height="361.7449645996094" preserveAspectRatio="none" transform="matrix(1, 0, 0, 1, -320.86236572265625, 410.1556701660156)" href="https://c.tile.openstreetmap.org/2/3/2.png"/></g><g clip-path="url(#FIxeClOxPQqT)"><image width="361.744873046875" height="361.7449645996094" preserveAspectRatio="none" transform="matrix(1, 0, 0, 1, 1487.8624267578125, 410.1556701660156)" href="https://c.tile.openstreetmap.org/2/0/2.png"/></g><g clip-path="url(#FIxeClOxPQqT)"><image width="361.7449417114258" height="361.744873046875" preserveAspectRatio="none" transform="matrix(1, 0, 0, 1, -320.86236572265625, 771.900634765625)" href="https://c.tile.openstreetmap.org/2/3/3.png"/></g><g clip-path="url(#FIxeClOxPQqT)"><image width="361.744873046875" height="361.744873046875" preserveAspectRatio="none" transform="matrix(1, 0, 0, 1, 1487.8624267578125, 771.900634765625)" href="https://c.tile.openstreetmap.org/2/0/3.png"/></g><path fill="rgb(31,119,179)" stroke="rgb(31,119,179)" paint-order="fill" d="M 386.10924755280814 284.6581726074219 A 6.0618537539800155 6.0618537539800155 0 0 1 373.9855400448481 284.6581726074219 A 6.0618537539800155 6.0618537539800155 0 0 1 386.10924755280814 284.6581726074219" fill-opacity="0.4" clip-path="url(#CcEGToeebhUJ)" stroke-opacity="0.4" stroke-linejoin="bevel" stroke-miterlimit="10"/><path fill="rgb(255,126,14)" stroke="rgb(255,126,14)" paint-order="fill" d="M 311.9658449778667 170.78656005859375 A 6.070978034507328 6.070978034507328 0 0 1 299.82388890885204 170.78656005859375 A 6.070978034507328 6.070978034507328 0 0 1 311.9658449778667 170.78656005859375" fill-opacity="0.4" clip-path="url(#CcEGToeebhUJ)" stroke-opacity="0.4" stroke-linejoin="bevel" stroke-miterlimit="10"/><path fill="rgb(43,160,43)" stroke="rgb(43,160,43)" paint-order="fill" d="M 432.3971535196558 228.98171997070312 A 4.247159623171374 4.247159623171374 0 0 1 423.902834273313 228.98171997070312 A 4.247159623171374 4.247159623171374 0 0 1 432.3971535196558 228.98171997070312" fill-opacity="0.4" clip-path="url(#CcEGToeebhUJ)" stroke-opacity="0.4" stroke-linejoin="bevel" stroke-miterlimit="10"/><path fill="rgb(214,38,40)" stroke="rgb(214,38,40)" paint-order="fill" d="M 307.92890873429053 170.7908935546875 A 2.0586999940561728 2.0586999940561728 0 0 1 303.8115087461782 170.7908935546875 A 2.0586999940561728 2.0586999940561728 0 0 1 307.92890873429053 170.7908935546875" fill-opacity="0.4" clip-path="url(#CcEGToeebhUJ)" stroke-opacity="0.4" stroke-linejoin="bevel" stroke-miterlimit="10"/><path fill="rgb(147,103,188)" stroke="rgb(147,103,188)" paint-order="fill" d="M 775.6328340642552 167.84640502929688 A 11.729696857224 11.729696857224 0 0 1 752.1734403498073 167.84640502929688 A 11.729696857224 11.729696857224 0 0 1 775.6328340642552 167.84640502929688" fill-opacity="0.4" clip-path="url(#CcEGToeebhUJ)" stroke-opacity="0.4" stroke-linejoin="bevel" stroke-miterlimit="10"/><path fill="rgb(140,86,75)" stroke="rgb(140,86,75)" paint-order="fill" d="M 385.1521838109168 284.8142395019531 A 4.5241625706824316 4.5241625706824316 0 0 1 376.1038586695519 284.8142395019531 A 4.5241625706824316 4.5241625706824316 0 0 1 385.1521838109168 284.8142395019531" fill-opacity="0.4" clip-path="url(#CcEGToeebhUJ)" stroke-opacity="0.4" stroke-linejoin="bevel" stroke-miterlimit="10"/><path fill="none" stroke="rgb(0,0,0)" paint-order="fill" d="M 33.5 560.5 L 1133.5 560.5" stroke-opacity="1" stroke-linejoin="bevel" stroke-miterlimit="10"/><path fill="none" stroke="rgb(0,0,0)" paint-order="fill" d="M 161.5 566.5 L 161.5 558.5 M 362.5 566.5 L 362.5 558.5 M 563.5 566.5 L 563.5 558.5 M 764.5 566.5 L 764.5 558.5 M 965.5 566.5 L 965.5 558.5" stroke-opacity="1" stroke-linejoin="bevel" stroke-miterlimit="10"/><path fill="none" stroke="rgb(0,0,0)" paint-order="fill" d="M 121.5 564.5 L 121.5 560.5 M 81.5 564.5 L 81.5 560.5 M 161.5 564.5 L 161.5 560.5 M 201.5 564.5 L 201.5 560.5 M 241.5 564.5 L 241.5 560.5 M 282.5 564.5 L 282.5 560.5 M 322.5 564.5 L 322.5 560.5 M 362.5 564.5 L 362.5 560.5 M 402.5 564.5 L 402.5 560.5 M 442.5 564.5 L 442.5 560.5 M 483.5 564.5 L 483.5 560.5 M 523.5 564.5 L 523.5 560.5 M 563.5 564.5 L 563.5 560.5 M 603.5 564.5 L 603.5 560.5 M 643.5 564.5 L 643.5 560.5 M 683.5 564.5 L 683.5 560.5 M 724.5 564.5 L 724.5 560.5 M 764.5 564.5 L 764.5 560.5 M 804.5 564.5 L 804.5 560.5 M 844.5 564.5 L 844.5 560.5 M 884.5 564.5 L 884.5 560.5 M 925.5 564.5 L 925.5 560.5 M 965.5 564.5 L 965.5 560.5 M 1005.5 564.5 L 1005.5 560.5 M 1045.5 564.5 L 1045.5 560.5 M 1085.5 564.5 L 1085.5 560.5 M 1126.5 564.5 L 1126.5 560.5" stroke-opacity="1" stroke-linejoin="bevel" stroke-miterlimit="10"/><text fill="rgb(68,68,68)" stroke="none" font-family="helvetica" font-size="11px" font-style="normal" font-weight="normal" text-decoration="normal" x="148.57579040527344" y="578.89013671875" text-anchor="start" dominant-baseline="alphabetic" transform="matrix(1, 0, 0, 1, 0.5, 0.5)" fill-opacity="1">−150</text><text fill="none" stroke="rgb(0,0,0)" font-family="helvetica" font-size="11px" font-style="normal" font-weight="normal" text-decoration="normal" x="148.57579040527344" y="578.89013671875" text-anchor="start" dominant-baseline="alphabetic" transform="matrix(1, 0, 0, 1, 0.5, 0.5)" stroke-opacity="0" stroke-linejoin="bevel" stroke-miterlimit="10">−150</text><text fill="rgb(68,68,68)" stroke="none" font-family="helvetica" font-size="11px" font-style="normal" font-weight="normal" text-decoration="normal" x="349.54522705078125" y="578.89013671875" text-anchor="start" dominant-baseline="alphabetic" transform="matrix(1, 0, 0, 1, 0.5, 0.5)" fill-opacity="1">−100</text><text fill="none" stroke="rgb(0,0,0)" font-family="helvetica" font-size="11px" font-style="normal" font-weight="normal" text-decoration="normal" x="349.54522705078125" y="578.89013671875" text-anchor="start" dominant-baseline="alphabetic" transform="matrix(1, 0, 0, 1, 0.5, 0.5)" stroke-opacity="0" stroke-linejoin="bevel" stroke-miterlimit="10">−100</text><text fill="rgb(68,68,68)" stroke="none" font-family="helvetica" font-size="11px" font-style="normal" font-weight="normal" text-decoration="normal" x="553.573486328125" y="578.89013671875" text-anchor="start" dominant-baseline="alphabetic" transform="matrix(1, 0, 0, 1, 0.5, 0.5)" fill-opacity="1">−50</text><text fill="none" stroke="rgb(0,0,0)" font-family="helvetica" font-size="11px" font-style="normal" font-weight="normal" text-decoration="normal" x="553.573486328125" y="578.89013671875" text-anchor="start" dominant-baseline="alphabetic" transform="matrix(1, 0, 0, 1, 0.5, 0.5)" stroke-opacity="0" stroke-linejoin="bevel" stroke-miterlimit="10">−50</text><text fill="rgb(68,68,68)" stroke="none" font-family="helvetica" font-size="11px" font-style="normal" font-weight="normal" text-decoration="normal" x="760.8136596679688" y="578.89013671875" text-anchor="start" dominant-baseline="alphabetic" transform="matrix(1, 0, 0, 1, 0.5, 0.5)" fill-opacity="1">0</text><text fill="none" stroke="rgb(0,0,0)" font-family="helvetica" font-size="11px" font-style="normal" font-weight="normal" text-decoration="normal" x="760.8136596679688" y="578.89013671875" text-anchor="start" dominant-baseline="alphabetic" transform="matrix(1, 0, 0, 1, 0.5, 0.5)" stroke-opacity="0" stroke-linejoin="bevel" stroke-miterlimit="10">0</text><text fill="rgb(68,68,68)" stroke="none" font-family="helvetica" font-size="11px" font-style="normal" font-weight="normal" text-decoration="normal" x="958.7242431640625" y="578.89013671875" text-anchor="start" dominant-baseline="alphabetic" transform="matrix(1, 0, 0, 1, 0.5, 0.5)" fill-opacity="1">50</text><text fill="none" stroke="rgb(0,0,0)" font-family="helvetica" font-size="11px" font-style="normal" font-weight="normal" text-decoration="normal" x="958.7242431640625" y="578.89013671875" text-anchor="start" dominant-baseline="alphabetic" transform="matrix(1, 0, 0, 1, 0.5, 0.5)" stroke-opacity="0" stroke-linejoin="bevel" stroke-miterlimit="10">50</text><text fill="rgb(68,68,68)" stroke="none" font-family="helvetica" font-size="13px" font-style="italic" font-weight="normal" text-decoration="normal" x="583" y="596.21484375" text-anchor="start" dominant-baseline="alphabetic" transform="matrix(1, 0, 0, 1, 0.5, 0.5)" fill-opacity="1"></text><text fill="none" stroke="rgb(0,0,0)" font-family="helvetica" font-size="13px" font-style="italic" font-weight="normal" text-decoration="normal" x="583" y="596.21484375" text-anchor="start" dominant-baseline="alphabetic" transform="matrix(1, 0, 0, 1, 0.5, 0.5)" stroke-opacity="0" stroke-linejoin="bevel" stroke-miterlimit="10"></text><path fill="none" stroke="rgb(0,0,0)" paint-order="fill" d="M 33.5 560.5 L 33.5 10.5" stroke-opacity="1" stroke-linejoin="bevel" stroke-miterlimit="10"/><path fill="none" stroke="rgb(0,0,0)" paint-order="fill" d="M 27.5 492.5 L 35.5 492.5 M 27.5 410.5 L 35.5 410.5 M 27.5 328.5 L 35.5 328.5 M 27.5 234.5 L 35.5 234.5 M 27.5 106.5 L 35.5 106.5" stroke-opacity="1" stroke-linejoin="bevel" stroke-miterlimit="10"/><path fill="none" stroke="rgb(0,0,0)" paint-order="fill" d="M 29.5 509.5 L 33.5 509.5 M 29.5 527.5 L 33.5 527.5 M 29.5 546.5 L 33.5 546.5 M 29.5 492.5 L 33.5 492.5 M 29.5 475.5 L 33.5 475.5 M 29.5 458.5 L 33.5 458.5 M 29.5 442.5 L 33.5 442.5 M 29.5 426.5 L 33.5 426.5 M 29.5 410.5 L 33.5 410.5 M 29.5 394.5 L 33.5 394.5 M 29.5 377.5 L 33.5 377.5 M 29.5 361.5 L 33.5 361.5 M 29.5 344.5 L 33.5 344.5 M 29.5 328.5 L 33.5 328.5 M 29.5 310.5 L 33.5 310.5 M 29.5 292.5 L 33.5 292.5 M 29.5 274.5 L 33.5 274.5 M 29.5 254.5 L 33.5 254.5 M 29.5 234.5 L 33.5 234.5 M 29.5 212.5 L 33.5 212.5 M 29.5 189.5 L 33.5 189.5 M 29.5 164.5 L 33.5 164.5 M 29.5 137.5 L 33.5 137.5 M 29.5 106.5 L 33.5 106.5 M 29.5 72.5 L 33.5 72.5 M 29.5 32.5 L 33.5 32.5" stroke-opacity="1" stroke-linejoin="bevel" stroke-miterlimit="10"/><text fill="rgb(68,68,68)" stroke="none" font-family="helvetica" font-size="11px" font-style="normal" font-weight="normal" text-decoration="normal" x="3.3408203125" y="495.67254638671875" text-anchor="start" dominant-baseline="alphabetic" transform="matrix(1, 0, 0, 1, 0.5, 0.5)" fill-opacity="1">−20</text><text fill="none" stroke="rgb(0,0,0)" font-family="helvetica" font-size="11px" font-style="normal" font-weight="normal" text-decoration="normal" x="3.3408203125" y="495.67254638671875" text-anchor="start" dominant-baseline="alphabetic" transform="matrix(1, 0, 0, 1, 0.5, 0.5)" stroke-opacity="0" stroke-linejoin="bevel" stroke-miterlimit="10">−20</text><text fill="rgb(68,68,68)" stroke="none" font-family="helvetica" font-size="11px" font-style="normal" font-weight="normal" text-decoration="normal" x="15.88232421875" y="413.6007385253906" text-anchor="start" dominant-baseline="alphabetic" transform="matrix(1, 0, 0, 1, 0.5, 0.5)" fill-opacity="1">0</text><text fill="none" stroke="rgb(0,0,0)" font-family="helvetica" font-size="11px" font-style="normal" font-weight="normal" text-decoration="normal" x="15.88232421875" y="413.6007385253906" text-anchor="start" dominant-baseline="alphabetic" transform="matrix(1, 0, 0, 1, 0.5, 0.5)" stroke-opacity="0" stroke-linejoin="bevel" stroke-miterlimit="10">0</text><text fill="rgb(68,68,68)" stroke="none" font-family="helvetica" font-size="11px" font-style="normal" font-weight="normal" text-decoration="normal" x="9.7646484375" y="331.5289001464844" text-anchor="start" dominant-baseline="alphabetic" transform="matrix(1, 0, 0, 1, 0.5, 0.5)" fill-opacity="1">20</text><text fill="none" stroke="rgb(0,0,0)" font-family="helvetica" font-size="11px" font-style="normal" font-weight="normal" text-decoration="normal" x="9.7646484375" y="331.5289001464844" text-anchor="start" dominant-baseline="alphabetic" transform="matrix(1, 0, 0, 1, 0.5, 0.5)" stroke-opacity="0" stroke-linejoin="bevel" stroke-miterlimit="10">20</text><text fill="rgb(68,68,68)" stroke="none" font-family="helvetica" font-size="11px" font-style="normal" font-weight="normal" text-decoration="normal" x="9.7646484375" y="237.9072265625" text-anchor="start" dominant-baseline="alphabetic" transform="matrix(1, 0, 0, 1, 0.5, 0.5)" fill-opacity="1">40</text><text fill="none" stroke="rgb(0,0,0)" font-family="helvetica" font-size="11px" font-style="normal" font-weight="normal" text-decoration="normal" x="9.7646484375" y="237.9072265625" text-anchor="start" dominant-baseline="alphabetic" transform="matrix(1, 0, 0, 1, 0.5, 0.5)" stroke-opacity="0" stroke-linejoin="bevel" stroke-miterlimit="10">40</text><text fill="rgb(68,68,68)" stroke="none" font-family="helvetica" font-size="11px" font-style="normal" font-weight="normal" text-decoration="normal" x="9.7646484375" y="110.31324768066406" text-anchor="start" dominant-baseline="alphabetic" transform="matrix(1, 0, 0, 1, 0.5, 0.5)" fill-opacity="1">60</text><text fill="none" stroke="rgb(0,0,0)" font-family="helvetica" font-size="11px" font-style="normal" font-weight="normal" text-decoration="normal" x="9.7646484375" y="110.31324768066406" text-anchor="start" dominant-baseline="alphabetic" transform="matrix(1, 0, 0, 1, 0.5, 0.5)" stroke-opacity="0" stroke-linejoin="bevel" stroke-miterlimit="10">60</text><text fill="rgb(68,68,68)" stroke="none" font-family="helvetica" font-size="13px" font-style="italic" font-weight="normal" text-decoration="normal" x="-4.6591796875" y="285" text-anchor="start" dominant-baseline="alphabetic" transform="matrix(6.123233995736766e-17, -1, 1, 6.123233995736766e-17, -289.1591796875, 280.8408203125)" fill-opacity="1"></text><text fill="none" stroke="rgb(0,0,0)" font-family="helvetica" font-size="13px" font-style="italic" font-weight="normal" text-decoration="normal" x="-4.6591796875" y="285" text-anchor="start" dominant-baseline="alphabetic" transform="matrix(6.123233995736766e-17, -1, 1, 6.123233995736766e-17, -289.1591796875, 280.8408203125)" stroke-opacity="0" stroke-linejoin="bevel" stroke-miterlimit="10"></text><path fill="rgb(255,255,255)" stroke="rgb(229,229,229)" paint-order="fill" d="M 1133.5 405.5 L 1367.5 405.5 L 1367.5 560.5 L 1133.5 560.5 L 1133.5 405.5 Z" fill-opacity="0.9490196078431372" stroke-opacity="0.5019607843137255" stroke-linejoin="bevel" stroke-miterlimit="10"/><path fill="rgb(31,119,179)" stroke="rgb(31,119,179)" paint-order="fill" d="M 1157.5 425.5 A 4 4 0 0 1 1149.5 425.5 A 4 4 0 0 1 1157.5 425.5" fill-opacity="0.4" stroke-opacity="0.4" stroke-linejoin="bevel" stroke-miterlimit="10"/><text fill="rgb(68,68,68)" stroke="none" font-family="helvetica" font-size="13px" font-style="normal" font-weight="normal" text-decoration="normal" x="0" y="4.5" text-anchor="start" dominant-baseline="alphabetic" transform="matrix(1, 0, 0, 1, 1168.5, 425.5)" fill-opacity="1">ConocoPhillips</text><text fill="none" stroke="rgb(0,0,0)" font-family="helvetica" font-size="13px" font-style="normal" font-weight="normal" text-decoration="normal" x="0" y="4.5" text-anchor="start" dominant-baseline="alphabetic" transform="matrix(1, 0, 0, 1, 1168.5, 425.5)" stroke-opacity="0" stroke-linejoin="bevel" stroke-miterlimit="10">ConocoPhillips</text><path fill="rgb(255,126,14)" stroke="rgb(255,126,14)" paint-order="fill" d="M 1157.5 448.5 A 4 4 0 0 1 1149.5 448.5 A 4 4 0 0 1 1157.5 448.5" fill-opacity="0.4" stroke-opacity="0.4" stroke-linejoin="bevel" stroke-miterlimit="10"/><text fill="rgb(68,68,68)" stroke="none" font-family="helvetica" font-size="13px" font-style="normal" font-weight="normal" text-decoration="normal" x="0" y="4.5" text-anchor="start" dominant-baseline="alphabetic" transform="matrix(1, 0, 0, 1, 1168.5, 448.5)" fill-opacity="1">Enbridge Inc.</text><text fill="none" stroke="rgb(0,0,0)" font-family="helvetica" font-size="13px" font-style="normal" font-weight="normal" text-decoration="normal" x="0" y="4.5" text-anchor="start" dominant-baseline="alphabetic" transform="matrix(1, 0, 0, 1, 1168.5, 448.5)" stroke-opacity="0" stroke-linejoin="bevel" stroke-miterlimit="10">Enbridge Inc.</text><path fill="rgb(43,160,43)" stroke="rgb(43,160,43)" paint-order="fill" d="M 1157.5 471.5 A 4 4 0 0 1 1149.5 471.5 A 4 4 0 0 1 1157.5 471.5" fill-opacity="0.4" stroke-opacity="0.4" stroke-linejoin="bevel" stroke-miterlimit="10"/><text fill="rgb(68,68,68)" stroke="none" font-family="helvetica" font-size="13px" font-style="normal" font-weight="normal" text-decoration="normal" x="0" y="4.5" text-anchor="start" dominant-baseline="alphabetic" transform="matrix(1, 0, 0, 1, 1168.5, 471.5)" fill-opacity="1">Marathon Petroleum Corporation</text><text fill="none" stroke="rgb(0,0,0)" font-family="helvetica" font-size="13px" font-style="normal" font-weight="normal" text-decoration="normal" x="0" y="4.5" text-anchor="start" dominant-baseline="alphabetic" transform="matrix(1, 0, 0, 1, 1168.5, 471.5)" stroke-opacity="0" stroke-linejoin="bevel" stroke-miterlimit="10">Marathon Petroleum Corporation</text><path fill="rgb(214,38,40)" stroke="rgb(214,38,40)" paint-order="fill" d="M 1157.5 494.5 A 4 4 0 0 1 1149.5 494.5 A 4 4 0 0 1 1157.5 494.5" fill-opacity="0.4" stroke-opacity="0.4" stroke-linejoin="bevel" stroke-miterlimit="10"/><text fill="rgb(68,68,68)" stroke="none" font-family="helvetica" font-size="13px" font-style="normal" font-weight="normal" text-decoration="normal" x="0" y="4.5" text-anchor="start" dominant-baseline="alphabetic" transform="matrix(1, 0, 0, 1, 1168.5, 494.5)" fill-opacity="1">Precision Drilling Corporation</text><text fill="none" stroke="rgb(0,0,0)" font-family="helvetica" font-size="13px" font-style="normal" font-weight="normal" text-decoration="normal" x="0" y="4.5" text-anchor="start" dominant-baseline="alphabetic" transform="matrix(1, 0, 0, 1, 1168.5, 494.5)" stroke-opacity="0" stroke-linejoin="bevel" stroke-miterlimit="10">Precision Drilling Corporation</text><path fill="rgb(147,103,188)" stroke="rgb(147,103,188)" paint-order="fill" d="M 1157.5 517.5 A 4 4 0 0 1 1149.5 517.5 A 4 4 0 0 1 1157.5 517.5" fill-opacity="0.4" stroke-opacity="0.4" stroke-linejoin="bevel" stroke-miterlimit="10"/><text fill="rgb(68,68,68)" stroke="none" font-family="helvetica" font-size="13px" font-style="normal" font-weight="normal" text-decoration="normal" x="0" y="4.5" text-anchor="start" dominant-baseline="alphabetic" transform="matrix(1, 0, 0, 1, 1168.5, 517.5)" fill-opacity="1">Shell plc</text><text fill="none" stroke="rgb(0,0,0)" font-family="helvetica" font-size="13px" font-style="normal" font-weight="normal" text-decoration="normal" x="0" y="4.5" text-anchor="start" dominant-baseline="alphabetic" transform="matrix(1, 0, 0, 1, 1168.5, 517.5)" stroke-opacity="0" stroke-linejoin="bevel" stroke-miterlimit="10">Shell plc</text><path fill="rgb(140,86,75)" stroke="rgb(140,86,75)" paint-order="fill" d="M 1157.5 540.5 A 4 4 0 0 1 1149.5 540.5 A 4 4 0 0 1 1157.5 540.5" fill-opacity="0.4" stroke-opacity="0.4" stroke-linejoin="bevel" stroke-miterlimit="10"/><text fill="rgb(68,68,68)" stroke="none" font-family="helvetica" font-size="13px" font-style="normal" font-weight="normal" text-decoration="normal" x="0" y="4.5" text-anchor="start" dominant-baseline="alphabetic" transform="matrix(1, 0, 0, 1, 1168.5, 540.5)" fill-opacity="1">Schlumberger Limited</text><text fill="none" stroke="rgb(0,0,0)" font-family="helvetica" font-size="13px" font-style="normal" font-weight="normal" text-decoration="normal" x="0" y="4.5" text-anchor="start" dominant-baseline="alphabetic" transform="matrix(1, 0, 0, 1, 1168.5, 540.5)" stroke-opacity="0" stroke-linejoin="bevel" stroke-miterlimit="10">Schlumberger Limited</text></svg>